<?xml version="1.0" encoding="UTF-8"?>
<svg xmlns="http://www.w3.org/2000/svg" width="64pt" height="64pt" viewBox="0 0 64 64" version="1.1">
<g id="surface1727395">
<path style=" stroke:none;fill-rule:nonzero;fill:rgb(100%,100%,100%);fill-opacity:1;" d="M 41 32 L 26 11 L 17 11 L 32 32 L 17 53 L 26 53 L 36.5 38.300781 L 47 53 L 56 53 Z M 41 32 "/>
<path style=" stroke:none;fill-rule:nonzero;fill:rgb(100%,100%,100%);fill-opacity:1;" d="M 40.199219 24 L 44.488281 30 L 61 30 L 61 24 Z M 40.199219 24 "/>
<path style=" stroke:none;fill-rule:nonzero;fill:rgb(100%,100%,100%);fill-opacity:1;" d="M 48.058594 35 L 52.34375 41 L 61 41 L 61 35 Z M 48.058594 35 "/>
<path style=" stroke:none;fill-rule:nonzero;fill:rgb(100%,100%,100%);fill-opacity:1;" d="M 12 53 L 3 53 L 18 32 L 3 11 L 12 11 L 27 32 Z M 12 53 "/>
<path style=" stroke:none;fill-rule:nonzero;fill:rgb(100%,100%,100%);fill-opacity:1;" d="M 12 54 L 3 54 C 2.625 54 2.28125 53.789062 2.109375 53.457031 C 1.9375 53.125 1.96875 52.722656 2.1875 52.417969 L 16.769531 32 L 2.1875 11.582031 C 1.96875 11.277344 1.941406 10.875 2.109375 10.542969 C 2.28125 10.210938 2.625 10 3 10 L 12 10 C 12.324219 10 12.625 10.15625 12.8125 10.417969 L 27.8125 31.417969 C 28.0625 31.765625 28.0625 32.234375 27.8125 32.582031 L 12.8125 53.582031 C 12.625 53.84375 12.324219 54 12 54 Z M 4.941406 52 L 11.484375 52 L 25.769531 32 L 11.484375 12 L 4.941406 12 L 18.8125 31.417969 C 19.0625 31.765625 19.0625 32.234375 18.8125 32.582031 Z M 4.941406 52 "/>
<path style=" stroke:none;fill-rule:nonzero;fill:rgb(100%,100%,100%);fill-opacity:1;" d="M 56 54 L 47 54 C 46.675781 54 46.375 53.84375 46.1875 53.582031 L 36.5 40.019531 L 26.8125 53.582031 C 26.625 53.84375 26.324219 54 26 54 L 17 54 C 16.625 54 16.28125 53.789062 16.109375 53.457031 C 15.9375 53.125 15.96875 52.722656 16.1875 52.417969 L 30.769531 32 L 16.1875 11.582031 C 15.96875 11.277344 15.941406 10.875 16.109375 10.542969 C 16.28125 10.210938 16.625 10 17 10 L 26 10 C 26.324219 10 26.625 10.15625 26.8125 10.417969 L 56.8125 52.417969 C 57.03125 52.722656 57.058594 53.125 56.890625 53.457031 C 56.71875 53.789062 56.375 54 56 54 Z M 47.515625 52 L 54.058594 52 L 25.484375 12 L 18.941406 12 L 32.8125 31.417969 C 33.0625 31.765625 33.0625 32.234375 32.8125 32.582031 L 18.941406 52 L 25.484375 52 L 35.6875 37.71875 C 36.0625 37.195312 36.9375 37.195312 37.3125 37.71875 Z M 47.515625 52 "/>
<path style=" stroke:none;fill-rule:nonzero;fill:rgb(100%,100%,100%);fill-opacity:1;" d="M 61 31 L 44.488281 31 C 44.164062 31 43.859375 30.84375 43.675781 30.582031 L 39.386719 24.582031 C 39.171875 24.277344 39.140625 23.875 39.3125 23.542969 C 39.484375 23.210938 39.824219 23 40.199219 23 L 61 23 C 61.554688 23 62 23.445312 62 24 L 62 30 C 62 30.554688 61.554688 31 61 31 Z M 45.003906 29 L 60 29 L 60 25 L 42.144531 25 Z M 45.003906 29 "/>
<path style=" stroke:none;fill-rule:nonzero;fill:rgb(100%,100%,100%);fill-opacity:1;" d="M 61 42 L 52.34375 42 C 52.023438 42 51.71875 41.84375 51.53125 41.582031 L 47.246094 35.582031 C 47.027344 35.277344 47 34.875 47.171875 34.542969 C 47.339844 34.210938 47.683594 34 48.058594 34 L 61 34 C 61.554688 34 62 34.445312 62 35 L 62 41 C 62 41.554688 61.554688 42 61 42 Z M 52.859375 40 L 60 40 L 60 36 L 50.003906 36 Z M 52.859375 40 "/>
</g>
</svg>
